<svg width="229" height="62" viewBox="0 0 229 62" fill="none" xmlns="http://www.w3.org/2000/svg">
<path d="M33.196 -0.000161423L24.1094 60.5171L29.3123 61.3059L38.3989 0.788671L33.196 -0.000161423Z" fill="#071C5B"/>
<path d="M29.9458 31.6578L10.6367 55.7559L14.7352 59.0719L34.0443 34.9738L29.9458 31.6578Z" fill="#071C5B"/>
<path d="M21.94 2.44285L17.0312 4.34717L39.1054 61.8019L44.0141 59.8976L21.94 2.44285Z" fill="#1459FE"/>
<path d="M8.72183 11.4939L5.42188 15.6123L29.1561 34.8153L32.4561 30.697L8.72183 11.4939Z" fill="#071C5B"/>
<path d="M0.7514 26.7047L0 31.938L30.5098 36.3614L31.2612 31.1281L0.7514 26.7047Z" fill="#071C5B"/>
<path d="M28.6532 30.2621L24.1094 60.5244L29.3123 61.3132L33.8562 31.051L28.6532 30.2621Z" fill="#071C5B"/>
<path d="M32.634 30.4739L4.15039 41.7427L6.07801 46.6625L34.5616 35.3938L32.634 30.4739Z" fill="#1459FE"/>
<path d="M65.32 45.48C62.52 45.48 60.1067 44.88 58.08 43.68C56.08 42.4533 54.5333 40.76 53.44 38.6C52.3733 36.4133 51.84 33.8933 51.84 31.04C51.84 28.1867 52.3733 25.6667 53.44 23.48C54.5333 21.2933 56.08 19.5867 58.08 18.36C60.1067 17.1333 62.52 16.52 65.32 16.52C68.7067 16.52 71.48 17.36 73.64 19.04C75.8 20.72 77.1467 23.0933 77.68 26.16H71.8C71.4533 24.6667 70.72 23.5067 69.6 22.68C68.5067 21.8267 67.0667 21.4 65.28 21.4C63.6267 21.4 62.2 21.8 61 22.6C59.8267 23.3733 58.92 24.48 58.28 25.92C57.64 27.3333 57.32 29.04 57.32 31.04C57.32 33.0133 57.64 34.72 58.28 36.16C58.92 37.6 59.8267 38.7067 61 39.48C62.2 40.2533 63.6267 40.64 65.28 40.64C67.0667 40.64 68.5067 40.2533 69.6 39.48C70.6933 38.68 71.4133 37.5733 71.76 36.16H77.68C77.1467 39.0667 75.8 41.3467 73.64 43C71.48 44.6533 68.7067 45.48 65.32 45.48ZM91.6913 45.48C89.7713 45.48 88.0379 45.04 86.4913 44.16C84.9713 43.2533 83.7579 42.0133 82.8513 40.44C81.9713 38.84 81.5313 37.0133 81.5313 34.96C81.5313 32.8533 81.9713 31.0133 82.8513 29.44C83.7579 27.84 84.9846 26.6 86.5313 25.72C88.0779 24.8133 89.8113 24.36 91.7313 24.36C93.6779 24.36 95.4113 24.8133 96.9313 25.72C98.4779 26.6 99.6913 27.84 100.571 29.44C101.478 31.0133 101.931 32.84 101.931 34.92C101.931 37 101.478 38.84 100.571 40.44C99.6913 42.0133 98.4779 43.2533 96.9313 44.16C95.3846 45.04 93.6379 45.48 91.6913 45.48ZM91.6913 40.8C92.5979 40.8 93.3979 40.5867 94.0913 40.16C94.8113 39.7333 95.3713 39.08 95.7713 38.2C96.1979 37.32 96.4113 36.2267 96.4113 34.92C96.4113 33.6133 96.1979 32.5333 95.7713 31.68C95.3713 30.8 94.8113 30.1467 94.0913 29.72C93.3979 29.2667 92.6113 29.04 91.7313 29.04C90.8779 29.04 90.0913 29.2667 89.3713 29.72C88.6513 30.1467 88.0779 30.8 87.6513 31.68C87.2513 32.5333 87.0513 33.6133 87.0513 34.92C87.0513 36.2267 87.2513 37.32 87.6513 38.2C88.0779 39.08 88.6379 39.7333 89.3313 40.16C90.0513 40.5867 90.8379 40.8 91.6913 40.8ZM106.585 45V24.84H111.345L111.745 28.12C112.359 27 113.225 26.0933 114.345 25.4C115.492 24.7067 116.852 24.36 118.425 24.36C120.105 24.36 121.519 24.7067 122.665 25.4C123.812 26.0933 124.679 27.1067 125.265 28.44C125.879 29.7733 126.185 31.4133 126.185 33.36V45H120.825V33.88C120.825 32.28 120.479 31.0533 119.785 30.2C119.119 29.3467 118.079 28.92 116.665 28.92C115.759 28.92 114.945 29.1333 114.225 29.56C113.532 29.9867 112.985 30.6 112.585 31.4C112.185 32.1733 111.985 33.12 111.985 34.24V45H106.585ZM131.273 45V24.84H136.033L136.433 28.12C137.046 27 137.913 26.0933 139.033 25.4C140.179 24.7067 141.539 24.36 143.113 24.36C144.793 24.36 146.206 24.7067 147.353 25.4C148.499 26.0933 149.366 27.1067 149.953 28.44C150.566 29.7733 150.873 31.4133 150.873 33.36V45H145.513V33.88C145.513 32.28 145.166 31.0533 144.473 30.2C143.806 29.3467 142.766 28.92 141.353 28.92C140.446 28.92 139.633 29.1333 138.913 29.56C138.219 29.9867 137.673 30.6 137.273 31.4C136.873 32.1733 136.673 33.12 136.673 34.24V45H131.273ZM165.64 45.48C163.614 45.48 161.814 45.0533 160.24 44.2C158.694 43.32 157.48 42.1067 156.6 40.56C155.747 38.9867 155.32 37.1733 155.32 35.12C155.32 33.0133 155.747 31.16 156.6 29.56C157.48 27.9333 158.694 26.6667 160.24 25.76C161.787 24.8267 163.587 24.36 165.64 24.36C167.64 24.36 169.387 24.8 170.88 25.68C172.374 26.56 173.534 27.7467 174.36 29.24C175.187 30.7333 175.6 32.4267 175.6 34.32C175.6 34.5867 175.6 34.8933 175.6 35.24C175.6 35.56 175.574 35.8933 175.52 36.24H159.16V32.96H170.16C170.08 31.6533 169.614 30.6267 168.76 29.88C167.934 29.1333 166.894 28.76 165.64 28.76C164.734 28.76 163.894 28.9733 163.12 29.4C162.347 29.8 161.734 30.4267 161.28 31.28C160.854 32.1333 160.64 33.2133 160.64 34.52V35.68C160.64 36.7733 160.84 37.7333 161.24 38.56C161.667 39.36 162.254 39.9867 163 40.44C163.747 40.8667 164.614 41.08 165.6 41.08C166.587 41.08 167.4 40.8667 168.04 40.44C168.707 40.0133 169.2 39.4667 169.52 38.8H175.04C174.667 40.0533 174.04 41.1867 173.16 42.2C172.28 43.2133 171.2 44.0133 169.92 44.6C168.64 45.1867 167.214 45.48 165.64 45.48ZM189.783 45.48C187.756 45.48 185.956 45.0267 184.383 44.12C182.809 43.2133 181.583 41.9733 180.703 40.4C179.823 38.8267 179.383 37.0267 179.383 35C179.383 32.92 179.823 31.0933 180.703 29.52C181.583 27.92 182.809 26.6667 184.383 25.76C185.956 24.8267 187.756 24.36 189.783 24.36C192.369 24.36 194.543 25.04 196.303 26.4C198.063 27.76 199.183 29.6267 199.663 32H193.943C193.703 31.0667 193.196 30.3333 192.423 29.8C191.676 29.2667 190.783 29 189.743 29C188.809 29 187.969 29.24 187.223 29.72C186.503 30.1733 185.929 30.8533 185.503 31.76C185.103 32.64 184.903 33.6933 184.903 34.92C184.903 35.8533 185.023 36.6933 185.263 37.44C185.503 38.16 185.836 38.7867 186.263 39.32C186.689 39.8267 187.196 40.2133 187.783 40.48C188.396 40.7467 189.049 40.88 189.743 40.88C190.436 40.88 191.063 40.76 191.623 40.52C192.209 40.28 192.703 39.9467 193.103 39.52C193.503 39.0667 193.783 38.52 193.943 37.88H199.663C199.183 40.2 198.049 42.0533 196.263 43.44C194.503 44.8 192.343 45.48 189.783 45.48ZM213.165 45C211.752 45 210.512 44.7867 209.445 44.36C208.405 43.9067 207.592 43.1733 207.005 42.16C206.419 41.12 206.125 39.7067 206.125 37.92V29.36H202.685V24.84H206.125L206.725 19.36H211.525V24.84H216.845V29.36H211.525V38C211.525 38.9067 211.725 39.5333 212.125 39.88C212.525 40.2267 213.205 40.4 214.165 40.4H216.805V45H213.165ZM223.83 45.2C222.817 45.2 222.003 44.9067 221.39 44.32C220.777 43.7067 220.47 42.96 220.47 42.08C220.47 41.2 220.777 40.4667 221.39 39.88C222.003 39.2667 222.817 38.96 223.83 38.96C224.79 38.96 225.577 39.2667 226.19 39.88C226.803 40.4667 227.11 41.2 227.11 42.08C227.11 42.96 226.803 43.7067 226.19 44.32C225.577 44.9067 224.79 45.2 223.83 45.2Z" fill="#071C5B"/>
</svg>
