<svg width="395" height="42" viewBox="0 0 395 42" fill="none" xmlns="http://www.w3.org/2000/svg">
<path d="M283.086 27.9661C281.665 27.9661 280.482 27.7228 279.542 27.2408C278.601 26.7588 277.902 26.113 277.441 25.3034C276.98 24.4985 276.752 23.6234 276.752 22.6781C276.752 21.5737 277.031 20.6143 277.595 19.8094C278.158 19.0045 278.987 18.3728 280.091 17.9235C281.19 17.4743 282.545 17.2496 284.152 17.2496H288.52C288.52 16.3277 288.395 15.5603 288.143 14.9519C287.892 14.3435 287.5 13.8849 286.974 13.5854C286.448 13.2859 285.773 13.1362 284.944 13.1362C284.003 13.1362 283.202 13.3515 282.536 13.7773C281.87 14.2032 281.456 14.8536 281.297 15.7287H277.236C277.376 14.4839 277.786 13.417 278.475 12.5325C279.164 11.6434 280.077 10.9554 281.209 10.4594C282.345 9.96336 283.588 9.71533 284.939 9.71533C286.569 9.71533 287.957 9.99611 289.102 10.5624C290.248 11.1286 291.128 11.9335 291.734 12.9818C292.339 14.03 292.646 15.2935 292.646 16.7676V27.5543H289.135L288.721 24.7559C288.492 25.2191 288.199 25.645 287.845 26.0334C287.491 26.4265 287.081 26.7634 286.625 27.0536C286.164 27.3437 285.642 27.5683 285.06 27.7275C284.473 27.8866 283.817 27.9708 283.081 27.9708L283.086 27.9661ZM284.017 24.681C284.683 24.681 285.274 24.5593 285.787 24.316C286.304 24.0726 286.751 23.7263 287.128 23.2771C287.505 22.8278 287.798 22.3271 288.003 21.7749C288.208 21.2227 288.348 20.633 288.418 20.0106V19.9405H284.599C283.798 19.9405 283.132 20.0434 282.606 20.254C282.08 20.4599 281.698 20.7454 281.47 21.101C281.241 21.4567 281.125 21.8778 281.125 22.3645C281.125 22.8512 281.241 23.263 281.47 23.6093C281.698 23.9556 282.033 24.2224 282.466 24.4049C282.899 24.5921 283.416 24.681 284.012 24.681H284.017Z" fill="#071C5B"/>
<path d="M294.988 27.5496V10.1271H298.635L298.942 13.0332C299.468 12.0177 300.227 11.2128 301.215 10.6138C302.202 10.0148 303.371 9.71533 304.726 9.71533C306.081 9.71533 307.315 10.0102 308.303 10.5951C309.29 11.1848 310.049 12.0411 310.589 13.1689C311.13 14.2967 311.4 15.7053 311.4 17.3853V27.5496H307.269V17.7644C307.269 16.3137 306.948 15.1952 306.305 14.4091C305.662 13.6276 304.712 13.2345 303.45 13.2345C302.626 13.2345 301.885 13.431 301.233 13.8241C300.581 14.2172 300.064 14.7881 299.687 15.5369C299.31 16.2856 299.119 17.1888 299.119 18.2511V27.5496H294.988Z" fill="#071C5B"/>
<path d="M320.616 27.9659C319.079 27.9659 317.743 27.7179 316.606 27.2218C315.47 26.7258 314.576 26.0332 313.924 25.1487C313.272 24.2596 312.885 23.2394 312.773 22.0882H316.9C317.016 22.5702 317.221 23.0148 317.519 23.4173C317.817 23.8197 318.222 24.1379 318.739 24.3672C319.256 24.5965 319.871 24.7135 320.579 24.7135C321.287 24.7135 321.827 24.6153 322.264 24.4187C322.698 24.2222 323.019 23.9648 323.228 23.6419C323.433 23.319 323.541 22.9727 323.541 22.603C323.541 22.0508 323.391 21.6249 323.093 21.3254C322.795 21.0259 322.367 20.7873 321.803 20.6188C321.24 20.4457 320.569 20.2772 319.792 20.1181C318.967 19.959 318.171 19.7531 317.403 19.5144C316.634 19.2711 315.945 18.9669 315.339 18.5972C314.734 18.2275 314.25 17.7548 313.896 17.1792C313.542 16.6036 313.365 15.9017 313.365 15.0687C313.365 14.0532 313.635 13.1453 314.175 12.3358C314.715 11.5308 315.493 10.8897 316.513 10.4171C317.533 9.94443 318.753 9.71045 320.178 9.71045C322.195 9.71045 323.806 10.1784 325.012 11.1097C326.214 12.0409 326.922 13.3512 327.126 15.0313H323.205C323.089 14.3855 322.767 13.8847 322.241 13.5291C321.715 13.1734 321.016 12.9909 320.141 12.9909C319.265 12.9909 318.562 13.1594 318.092 13.4916C317.621 13.8239 317.389 14.2685 317.389 14.8207C317.389 15.1904 317.533 15.5133 317.817 15.7894C318.106 16.0655 318.52 16.3041 319.074 16.496C319.624 16.6925 320.299 16.8844 321.105 17.0669C322.39 17.3196 323.527 17.6191 324.509 17.9654C325.496 18.3117 326.274 18.8171 326.847 19.4863C327.42 20.1555 327.709 21.1008 327.709 22.3222C327.732 23.4266 327.452 24.4094 326.866 25.2611C326.279 26.1128 325.459 26.7773 324.407 27.2499C323.35 27.7226 322.092 27.9566 320.621 27.9566L320.616 27.9659Z" fill="#071C5B"/>
<path d="M332.52 27.5494L327.43 10.127H331.523L335.067 24.4374L334.313 24.4047L338.271 10.127H342.882L346.873 24.4047H346.118L349.662 10.127H353.756L348.666 27.5494H344.4L340.167 12.7897H341.028L336.795 27.5494H332.529H332.52Z" fill="#071C5B"/>
<path d="M362.143 27.9661C360.424 27.9661 358.911 27.5917 357.602 26.843C356.293 26.0942 355.274 25.0413 354.542 23.6795C353.807 22.3177 353.443 20.7547 353.443 18.9764C353.443 17.1982 353.807 15.5181 354.528 14.1376C355.25 12.7525 356.27 11.6714 357.588 10.8899C358.906 10.1084 360.438 9.71533 362.18 9.71533C363.922 9.71533 365.356 10.0944 366.618 10.8572C367.88 11.62 368.854 12.6355 369.543 13.9177C370.232 15.1999 370.577 16.6319 370.577 18.223V18.9811C370.577 19.2572 370.553 19.5474 370.507 19.8469H356.401V17.1841H366.413C366.367 15.9159 365.943 14.9191 365.142 14.1938C364.341 13.4684 363.34 13.1034 362.147 13.1034C361.3 13.1034 360.517 13.3 359.81 13.6931C359.097 14.0862 358.538 14.6664 358.124 15.4386C357.709 16.2107 357.504 17.1841 357.504 18.3587V19.3602C357.504 20.4459 357.705 21.3771 358.105 22.1586C358.506 22.9401 359.055 23.5345 359.758 23.9369C360.457 24.3394 361.244 24.5406 362.115 24.5406C363.079 24.5406 363.875 24.3347 364.504 23.9182C365.133 23.5017 365.598 22.9495 365.896 22.2569H370.092C369.771 23.3426 369.245 24.316 368.509 25.177C367.773 26.0428 366.87 26.7213 365.789 27.2174C364.709 27.7134 363.493 27.9614 362.143 27.9614V27.9661Z" fill="#071C5B"/>
<path d="M372.322 27.5494V10.1269H376.001L376.379 13.3746C376.793 12.6119 377.31 11.9614 377.925 11.4232C378.544 10.8804 379.271 10.4592 380.109 10.1597C380.947 9.8602 381.869 9.71045 382.88 9.71045V14.1H381.436C380.747 14.1 380.095 14.1842 379.475 14.3574C378.856 14.5305 378.325 14.8066 377.878 15.1857C377.431 15.5647 377.082 16.0842 376.83 16.7393C376.579 17.3945 376.453 18.2228 376.453 19.2102V27.5401H372.322V27.5494Z" fill="#071C5B"/>
<path d="M383.92 27.5494V10.1269H387.599L387.976 13.3746C388.391 12.6119 388.908 11.9614 389.522 11.4232C390.142 10.8804 390.868 10.4592 391.706 10.1597C392.545 9.8602 393.467 9.71045 394.477 9.71045V14.1H393.034C392.345 14.1 391.693 14.1842 391.073 14.3574C390.454 14.5305 389.923 14.8066 389.476 15.1857C389.029 15.5647 388.679 16.0842 388.428 16.7393C388.176 17.3945 388.051 18.2228 388.051 19.2102V27.5401H383.92V27.5494Z" fill="#071C5B"/>
<path d="M265.949 0.00021331L260.215 38.1895L263.498 38.6872L269.232 0.498004L265.949 0.00021331Z" fill="#071C5B"/>
<path d="M263.896 19.9776L251.711 35.1846L254.297 37.2771L266.482 22.0701L263.896 19.9776Z" fill="#071C5B"/>
<path d="M258.844 1.54194L255.746 2.74365L269.676 39.0003L272.774 37.7986L258.844 1.54194Z" fill="#1459FE"/>
<path d="M250.504 7.25316L248.422 9.85205L263.399 21.9701L265.482 19.3712L250.504 7.25316Z" fill="#071C5B"/>
<path d="M245.474 16.8519L245 20.1543L264.253 22.9457L264.727 19.6432L245.474 16.8519Z" fill="#071C5B"/>
<path d="M263.082 19.0969L260.215 38.1938L263.498 38.6916L266.366 19.5947L263.082 19.0969Z" fill="#071C5B"/>
<path d="M265.594 19.2307L247.619 26.3418L248.836 29.4465L266.81 22.3353L265.594 19.2307Z" fill="#1459FE"/>
<path d="M15.32 34.48C12.52 34.48 10.1067 33.88 8.08 32.68C6.08 31.4533 4.53333 29.76 3.44 27.6C2.37333 25.4133 1.84 22.8933 1.84 20.04C1.84 17.1867 2.37333 14.6667 3.44 12.48C4.53333 10.2933 6.08 8.58667 8.08 7.36C10.1067 6.13333 12.52 5.52 15.32 5.52C18.7067 5.52 21.48 6.36 23.64 8.04C25.8 9.72 27.1467 12.0933 27.68 15.16H21.8C21.4533 13.6667 20.72 12.5067 19.6 11.68C18.5067 10.8267 17.0667 10.4 15.28 10.4C13.6267 10.4 12.2 10.8 11 11.6C9.82667 12.3733 8.92 13.48 8.28 14.92C7.64 16.3333 7.32 18.04 7.32 20.04C7.32 22.0133 7.64 23.72 8.28 25.16C8.92 26.6 9.82667 27.7067 11 28.48C12.2 29.2533 13.6267 29.64 15.28 29.64C17.0667 29.64 18.5067 29.2533 19.6 28.48C20.6933 27.68 21.4133 26.5733 21.76 25.16H27.68C27.1467 28.0667 25.8 30.3467 23.64 32C21.48 33.6533 18.7067 34.48 15.32 34.48ZM41.6913 34.48C39.7713 34.48 38.0379 34.04 36.4913 33.16C34.9713 32.2533 33.7579 31.0133 32.8513 29.44C31.9713 27.84 31.5313 26.0133 31.5313 23.96C31.5313 21.8533 31.9713 20.0133 32.8513 18.44C33.7579 16.84 34.9846 15.6 36.5313 14.72C38.0779 13.8133 39.8113 13.36 41.7313 13.36C43.6779 13.36 45.4113 13.8133 46.9313 14.72C48.4779 15.6 49.6913 16.84 50.5713 18.44C51.4779 20.0133 51.9313 21.84 51.9313 23.92C51.9313 26 51.4779 27.84 50.5713 29.44C49.6913 31.0133 48.4779 32.2533 46.9313 33.16C45.3846 34.04 43.6379 34.48 41.6913 34.48ZM41.6913 29.8C42.5979 29.8 43.3979 29.5867 44.0913 29.16C44.8113 28.7333 45.3713 28.08 45.7713 27.2C46.1979 26.32 46.4113 25.2267 46.4113 23.92C46.4113 22.6133 46.1979 21.5333 45.7713 20.68C45.3713 19.8 44.8113 19.1467 44.0913 18.72C43.3979 18.2667 42.6113 18.04 41.7313 18.04C40.8779 18.04 40.0913 18.2667 39.3713 18.72C38.6513 19.1467 38.0779 19.8 37.6513 20.68C37.2513 21.5333 37.0513 22.6133 37.0513 23.92C37.0513 25.2267 37.2513 26.32 37.6513 27.2C38.0779 28.08 38.6379 28.7333 39.3313 29.16C40.0513 29.5867 40.8379 29.8 41.6913 29.8ZM56.5853 34V13.84H61.3453L61.7453 17.12C62.3586 16 63.2253 15.0933 64.3453 14.4C65.492 13.7067 66.852 13.36 68.4253 13.36C70.1053 13.36 71.5186 13.7067 72.6653 14.4C73.812 15.0933 74.6786 16.1067 75.2653 17.44C75.8786 18.7733 76.1853 20.4133 76.1853 22.36V34H70.8253V22.88C70.8253 21.28 70.4786 20.0533 69.7853 19.2C69.1186 18.3467 68.0786 17.92 66.6653 17.92C65.7586 17.92 64.9453 18.1333 64.2253 18.56C63.532 18.9867 62.9853 19.6 62.5853 20.4C62.1853 21.1733 61.9853 22.12 61.9853 23.24V34H56.5853ZM81.2728 34V13.84H86.0328L86.4328 17.12C87.0461 16 87.9128 15.0933 89.0328 14.4C90.1795 13.7067 91.5395 13.36 93.1128 13.36C94.7928 13.36 96.2061 13.7067 97.3528 14.4C98.4995 15.0933 99.3661 16.1067 99.9528 17.44C100.566 18.7733 100.873 20.4133 100.873 22.36V34H95.5128V22.88C95.5128 21.28 95.1661 20.0533 94.4728 19.2C93.8061 18.3467 92.7661 17.92 91.3528 17.92C90.4461 17.92 89.6328 18.1333 88.9128 18.56C88.2195 18.9867 87.6728 19.6 87.2728 20.4C86.8728 21.1733 86.6728 22.12 86.6728 23.24V34H81.2728ZM115.64 34.48C113.614 34.48 111.814 34.0533 110.24 33.2C108.694 32.32 107.48 31.1067 106.6 29.56C105.747 27.9867 105.32 26.1733 105.32 24.12C105.32 22.0133 105.747 20.16 106.6 18.56C107.48 16.9333 108.694 15.6667 110.24 14.76C111.787 13.8267 113.587 13.36 115.64 13.36C117.64 13.36 119.387 13.8 120.88 14.68C122.374 15.56 123.534 16.7467 124.36 18.24C125.187 19.7333 125.6 21.4267 125.6 23.32C125.6 23.5867 125.6 23.8933 125.6 24.24C125.6 24.56 125.574 24.8933 125.52 25.24H109.16V21.96H120.16C120.08 20.6533 119.614 19.6267 118.76 18.88C117.934 18.1333 116.894 17.76 115.64 17.76C114.734 17.76 113.894 17.9733 113.12 18.4C112.347 18.8 111.734 19.4267 111.28 20.28C110.854 21.1333 110.64 22.2133 110.64 23.52V24.68C110.64 25.7733 110.84 26.7333 111.24 27.56C111.667 28.36 112.254 28.9867 113 29.44C113.747 29.8667 114.614 30.08 115.6 30.08C116.587 30.08 117.4 29.8667 118.04 29.44C118.707 29.0133 119.2 28.4667 119.52 27.8H125.04C124.667 29.0533 124.04 30.1867 123.16 31.2C122.28 32.2133 121.2 33.0133 119.92 33.6C118.64 34.1867 117.214 34.48 115.64 34.48ZM139.783 34.48C137.756 34.48 135.956 34.0267 134.383 33.12C132.809 32.2133 131.583 30.9733 130.703 29.4C129.823 27.8267 129.383 26.0267 129.383 24C129.383 21.92 129.823 20.0933 130.703 18.52C131.583 16.92 132.809 15.6667 134.383 14.76C135.956 13.8267 137.756 13.36 139.783 13.36C142.369 13.36 144.543 14.04 146.303 15.4C148.063 16.76 149.183 18.6267 149.663 21H143.943C143.703 20.0667 143.196 19.3333 142.423 18.8C141.676 18.2667 140.783 18 139.743 18C138.809 18 137.969 18.24 137.223 18.72C136.503 19.1733 135.929 19.8533 135.503 20.76C135.103 21.64 134.903 22.6933 134.903 23.92C134.903 24.8533 135.023 25.6933 135.263 26.44C135.503 27.16 135.836 27.7867 136.263 28.32C136.689 28.8267 137.196 29.2133 137.783 29.48C138.396 29.7467 139.049 29.88 139.743 29.88C140.436 29.88 141.063 29.76 141.623 29.52C142.209 29.28 142.703 28.9467 143.103 28.52C143.503 28.0667 143.783 27.52 143.943 26.88H149.663C149.183 29.2 148.049 31.0533 146.263 32.44C144.503 33.8 142.343 34.48 139.783 34.48ZM163.165 34C161.752 34 160.512 33.7867 159.445 33.36C158.405 32.9067 157.592 32.1733 157.005 31.16C156.419 30.12 156.125 28.7067 156.125 26.92V18.36H152.685V13.84H156.125L156.725 8.36H161.525V13.84H166.845V18.36H161.525V27C161.525 27.9067 161.725 28.5333 162.125 28.88C162.525 29.2267 163.205 29.4 164.165 29.4H166.805V34H163.165ZM173.83 34.2C172.817 34.2 172.003 33.9067 171.39 33.32C170.777 32.7067 170.47 31.96 170.47 31.08C170.47 30.2 170.777 29.4667 171.39 28.88C172.003 28.2667 172.817 27.96 173.83 27.96C174.79 27.96 175.577 28.2667 176.19 28.88C176.803 29.4667 177.11 30.2 177.11 31.08C177.11 31.96 176.803 32.7067 176.19 33.32C175.577 33.9067 174.79 34.2 173.83 34.2Z" fill="#1459FE"/>
<path d="M200.56 33.48C199.52 33.48 198.587 33.3467 197.76 33.08C196.96 32.8133 196.24 32.4533 195.6 32C194.987 31.52 194.467 30.9867 194.04 30.4L193.44 33H188.64V4.2H194.04V15.64C194.68 14.7067 195.52 13.9333 196.56 13.32C197.627 12.68 198.947 12.36 200.52 12.36C202.387 12.36 204.04 12.8267 205.48 13.76C206.947 14.6667 208.093 15.92 208.92 17.52C209.773 19.0933 210.2 20.9067 210.2 22.96C210.2 24.96 209.773 26.76 208.92 28.36C208.093 29.96 206.96 31.2133 205.52 32.12C204.08 33.0267 202.427 33.48 200.56 33.48ZM199.28 28.76C200.347 28.76 201.28 28.52 202.08 28.04C202.907 27.5333 203.547 26.8533 204 26C204.453 25.12 204.68 24.1067 204.68 22.96C204.68 21.8133 204.453 20.8 204 19.92C203.547 19.0133 202.907 18.32 202.08 17.84C201.28 17.3333 200.347 17.08 199.28 17.08C198.24 17.08 197.307 17.3333 196.48 17.84C195.68 18.32 195.04 19 194.56 19.88C194.107 20.76 193.88 21.7733 193.88 22.92C193.88 24.0667 194.107 25.0933 194.56 26C195.04 26.88 195.68 27.56 196.48 28.04C197.307 28.52 198.24 28.76 199.28 28.76ZM215.575 41.8L220.455 30.76H219.255L211.175 12.84H217.055L222.815 25.84L228.015 12.84H233.735L221.295 41.8H215.575Z" fill="#1459FE"/>
</svg>
